<?xml version="1.0" encoding="iso-8859-1"?>
<!-- Generator: Adobe Illustrator 16.0.0, SVG Export Plug-In . SVG Version: 6.00 Build 0)  -->
<!DOCTYPE svg PUBLIC "-//W3C//DTD SVG 1.1//EN" "http://www.w3.org/Graphics/SVG/1.1/DTD/svg11.dtd">
<svg version="1.1" id="Capa_1" xmlns="http://www.w3.org/2000/svg" xmlns:xlink="http://www.w3.org/1999/xlink" x="0px" y="0px"
	 width="654.348px" height="654.348px" viewBox="0 0 654.348 654.348" style="enable-background:new 0 0 654.348 654.348;"
	 xml:space="preserve">
<g>
	<g id="user">
		<g>
			<path d="M466.121,401.586c52.287-41.184,85.985-104.92,85.985-176.654C552.106,100.708,451.398,0,327.174,0
				S102.242,100.708,102.242,224.932c0,71.733,33.699,135.47,85.985,176.654C94.471,449.373,28.484,543.764,21.184,654.348h40.958
				c7.893-103.549,75.209-190.332,167.861-226.793c29.446,14.15,62.327,22.311,97.171,22.311c34.865,0,67.725-8.16,97.17-22.311
				c92.652,36.461,159.968,123.244,167.861,226.793h40.958C625.884,543.764,559.876,449.373,466.121,401.586z M327.174,408.969
				c-101.649,0-184.036-82.387-184.036-184.037c0-101.649,82.387-184.035,184.036-184.035s184.036,82.386,184.036,184.035
				C511.209,326.582,428.823,408.969,327.174,408.969z"/>
		</g>
	</g>
</g>
<g>
</g>
<g>
</g>
<g>
</g>
<g>
</g>
<g>
</g>
<g>
</g>
<g>
</g>
<g>
</g>
<g>
</g>
<g>
</g>
<g>
</g>
<g>
</g>
<g>
</g>
<g>
</g>
<g>
</g>
</svg>
