<?xml version="1.0" encoding="iso-8859-1"?>
<!-- Generator: Adobe Illustrator 16.0.0, SVG Export Plug-In . SVG Version: 6.00 Build 0)  -->
<!DOCTYPE svg PUBLIC "-//W3C//DTD SVG 1.1//EN" "http://www.w3.org/Graphics/SVG/1.1/DTD/svg11.dtd">
<svg version="1.1" id="Capa_1" xmlns="http://www.w3.org/2000/svg" xmlns:xlink="http://www.w3.org/1999/xlink" x="0px" y="0px"
	 width="439.833px" height="439.833px" viewBox="0 0 439.833 439.833" style="enable-background:new 0 0 439.833 439.833;"
	 xml:space="preserve">
<g>
	<g>
		<g>
			<polygon points="259.164,350.396 278.696,358.185 331.142,320.003 300.912,320.003 			"/>
			<polygon points="246.048,195.833 299.966,235.085 319.497,227.296 276.278,195.833 			"/>
			<polygon points="180.663,350.392 138.922,320.003 108.691,320.003 161.132,358.18 			"/>
			<polygon points="193.786,195.833 163.556,195.833 120.33,227.3 139.862,235.089 			"/>
			<g>
				<path d="M219.927,11.558c-23.854,0-37.057,12.362-36.814,36.182c0.348,32.623,14.211,52.414,36.814,52.068
					c0,0,36.802,1.492,36.802-52.068C256.729,23.918,244.294,11.558,219.927,11.558z"/>
				<path d="M285.017,124.567l-36.77-14.659l-8.608-7.256c-2.274-1.922-5.636-1.78-7.741,0.317l-11.973,11.904l-12.008-11.907
					c-2.109-2.094-5.465-2.229-7.736-0.313l-8.611,7.256l-36.77,14.661c-11.842,4.715-11.83,46.647-12.848,50.497h155.93
					C296.866,171.228,296.862,129.28,285.017,124.567z"/>
			</g>
			<g>
				<path d="M77.976,228.568c0,0,36.801,1.492,36.801-52.068c0-23.82-12.434-36.182-36.801-36.182
					c-23.854,0-37.057,12.362-36.814,36.182C41.509,209.124,55.372,228.915,77.976,228.568z"/>
				<path d="M143.065,253.329l-36.77-14.658l-8.609-7.256c-2.275-1.923-5.635-1.781-7.742,0.315l-11.971,11.904l-12.008-11.908
					c-2.109-2.094-5.465-2.229-7.736-0.312l-8.611,7.256l-36.77,14.66C1.006,258.045,1.018,299.977,0,303.827h155.93
					C154.915,299.988,154.911,258.042,143.065,253.329z"/>
				<path d="M361.878,228.568c0,0,36.801,1.492,36.801-52.068c0-23.82-12.434-36.182-36.801-36.182
					c-23.854,0-37.057,12.362-36.812,36.182C325.411,209.124,339.274,228.915,361.878,228.568z"/>
				<path d="M426.968,253.329l-36.77-14.658l-8.609-7.256c-2.273-1.923-5.635-1.781-7.742,0.315l-11.971,11.904l-12.008-11.908
					c-2.109-2.094-5.465-2.229-7.736-0.312l-8.61,7.256l-36.771,14.66c-11.842,4.715-11.83,46.646-12.848,50.497h155.93
					C438.817,299.988,438.812,258.042,426.968,253.329z"/>
			</g>
			<g>
				<path d="M219.927,264.767c-23.854,0-37.057,12.361-36.814,36.182c0.348,32.625,14.211,52.414,36.814,52.068
					c0,0,36.802,1.492,36.802-52.068C256.729,277.128,244.294,264.767,219.927,264.767z"/>
				<path d="M285.017,377.778l-36.77-14.66l-8.608-7.256c-2.274-1.922-5.636-1.78-7.741,0.316l-11.973,11.904l-12.008-11.906
					c-2.109-2.096-5.465-2.229-7.736-0.313l-8.611,7.255l-36.77,14.661c-11.842,4.716-11.83,46.646-12.848,50.496h155.93
					C296.866,424.437,296.862,382.489,285.017,377.778z"/>
			</g>
		</g>
	</g>
</g>
<g>
</g>
<g>
</g>
<g>
</g>
<g>
</g>
<g>
</g>
<g>
</g>
<g>
</g>
<g>
</g>
<g>
</g>
<g>
</g>
<g>
</g>
<g>
</g>
<g>
</g>
<g>
</g>
<g>
</g>
</svg>
